<?xml version="1.0" encoding="UTF-8"?>
<svg xmlns="http://www.w3.org/2000/svg" id="Layer_1" viewBox="0 0 85 69.23">
  <defs>
    <style>.cls-1{fill:#FF5500;}</style>
  </defs>
  <path class="cls-1" d="m44.25,36.61c-.3-.26-.71-.38-1.11-.33,0,0-.4.05-1.02.05-.89,0-2.23-.11-3.56-.63-2.24-.87-3.53-2.48-3.54-2.49-.26-.34-.66-.53-1.08-.54-.42,0-.83.18-1.1.51-.01.02-1.39,1.65-3.64,2.52-1.33.52-2.68.63-3.57.63-.62,0-1.02-.05-1.02-.05-.4-.06-.8.06-1.11.33-.3.26-.48.65-.48,1.05v8.55c0,7.38,9.86,11.96,10.28,12.16.18.08.38.13.58.13s.39-.04.58-.13c.42-.19,10.28-4.77,10.28-12.16v-8.55c0-.4-.18-.78-.48-1.05Zm-2.3,9.6c0,4.73-6.13,8.32-8.07,9.33-1.94-1.01-8.07-4.6-8.07-9.33v-7.09c1.13-.01,2.76-.17,4.41-.81,1.62-.63,2.87-1.54,3.69-2.26.8.72,2.03,1.63,3.65,2.26,1.65.64,3.27.8,4.39.81v7.09Z"></path>
  <path class="cls-1" d="m32.9,46.91l-2.19-2.04c-.56-.52-1.44-.49-1.97.07-.52.56-.49,1.44.07,1.97l3.22,2.98c.26.24.6.37.95.37.02,0,.04,0,.05,0,.37-.01.72-.17.97-.45l5.55-6c.52-.56.49-1.44-.08-1.97-.56-.52-1.44-.49-1.97.08l-4.6,4.98Z"></path>
  <path class="cls-1" d="m58.92,25.15H9.38c-2.92,0-5.29,2.37-5.29,5.29v29.5c0,2.92,2.37,5.29,5.29,5.29h49.53c2.92,0,5.29-2.37,5.29-5.29v-29.5c0-2.92-2.37-5.29-5.29-5.29Zm2.5,34.78c0,1.38-1.12,2.5-2.5,2.5H9.38c-1.38,0-2.5-1.12-2.5-2.5v-29.5c0-1.38,1.12-2.5,2.5-2.5h49.53c1.38,0,2.5,1.12,2.5,2.5v29.5Z"></path>
  <path class="cls-1" d="m75.62,4.01H26.08c-2.92,0-5.29,2.37-5.29,5.29v13.08c0,.77.62,1.39,1.39,1.39s1.39-.62,1.39-1.39v-1.67h54.54v18.09c0,1.38-1.12,2.5-2.5,2.5h-8.63c-.77,0-1.39.62-1.39,1.39s.62,1.39,1.39,1.39h8.63c2.92,0,5.29-2.37,5.29-5.29V9.29c0-2.92-2.37-5.29-5.29-5.29Zm-49.53,2.78h49.53c1.38,0,2.5,1.12,2.5,2.5v1.39H23.58v-1.39c0-1.38,1.12-2.5,2.5-2.5Zm-2.5,11.13v-4.45h54.54v4.45H23.58Z"></path>
</svg>
