<?xml version="1.0" encoding="UTF-8"?>
<svg xmlns="http://www.w3.org/2000/svg" id="Layer_1" viewBox="0 0 85 69.23">
  <defs>
    <style>.cls-1{fill:#FF5500;}</style>
  </defs>
  <path class="cls-1" d="m53.92,38.35h0c-.12,3.58-1.55,7.12-4.28,9.86-2.86,2.86-6.59,4.29-10.34,4.29-3.77,0-7.52-1.42-10.39-4.29-2.87-2.87-4.29-6.61-4.29-10.37,0-3.75,1.43-7.49,4.29-10.35,2.86-2.86,6.61-4.29,10.36-4.29.2,0,.39,0,.59.01.38.01.72-.12.98-.36.25-.24.42-.57.43-.94.03-.75-.55-1.38-1.3-1.41-.23,0-.47-.01-.7-.01-4.44,0-8.89,1.7-12.28,5.09-3.39,3.38-5.09,7.83-5.09,12.27,0,4.44,1.69,8.9,5.09,12.29,3.4,3.4,7.86,5.09,12.31,5.09,4.43,0,8.87-1.71,12.25-5.09,3.24-3.24,4.93-7.44,5.08-11.68.03-.75-.56-1.37-1.31-1.4-.37-.01-.71.13-.97.36-.26.24-.42.57-.43.95Z"></path>
  <path class="cls-1" d="m64.58,2.37c-2.59,0-5.2,1-7.17,2.98-1.97,1.96-2.96,4.55-2.97,7.12l-6.61,6.61-5.44,5.44-2.06,2.06c-.31-.03-.63-.04-.94-.04-2.86,0-5.74,1.1-7.93,3.28-2.19,2.19-3.28,5.06-3.28,7.92,0,1.13.17,2.25.51,3.34.14.45.51.8.97.91.46.11.95-.02,1.28-.36l4.73-4.73,3.6.96.96,3.6-4.73,4.73c-.34.34-.47.82-.36,1.28.11.46.46.83.91.97,1.09.34,2.21.51,3.34.51,2.86,0,5.74-1.1,7.92-3.28,2.19-2.19,3.28-5.06,3.28-7.93,0-.32-.02-.63-.04-.95l1.67-1.67,5.82-5.82,6.6-6.6c2.58-.01,5.16-1.01,7.13-2.97,1.99-1.99,2.98-4.62,2.98-7.22,0-2.59-1.01-5.18-2.98-7.15-1.98-1.99-4.6-2.98-7.2-2.98Zm.01,17.61c-.14,0-.28,0-.42-.01-.39-.02-.76.12-1.03.39l-14.96,14.96c-.3.3-.45.73-.38,1.16.06.41.09.83.09,1.25,0,2.18-.83,4.35-2.49,6.01-1.66,1.66-3.83,2.49-6.01,2.49-.04,0-.07,0-.11,0l3.41-3.41c.34-.34.48-.84.35-1.31l-1.37-5.11c-.13-.47-.49-.83-.96-.96l-5.11-1.37c-.47-.13-.97,0-1.31.35l-3.41,3.41s0-.07,0-.11c0-2.18.83-4.35,2.49-6.01,1.66-1.66,3.83-2.49,6.01-2.49.42,0,.83.03,1.25.09.43.06.85-.08,1.16-.38l14.97-14.97c.27-.27.42-.65.39-1.03,0-.14-.01-.27-.01-.41,0-1.91.72-3.81,2.18-5.27,1.46-1.46,3.35-2.18,5.26-2.18,1.92,0,3.82.72,5.28,2.18,1.45,1.45,2.18,3.34,2.18,5.24,0,1.93-.72,3.84-2.18,5.3-1.46,1.46-3.36,2.18-5.27,2.18Z"></path>
  <path class="cls-1" d="m59.48,31.61c-.22.71.18,1.47.89,1.7l5.05,1.58c.11.98.17,1.97.17,2.96s-.06,1.97-.17,2.96l-5.05,1.58c-.44.14-.78.49-.9.94-.46,1.71-1.14,3.37-2.04,4.94-.23.4-.24.9-.03,1.3l2.45,4.68c-.61.76-1.26,1.5-1.97,2.21-.71.71-1.44,1.36-2.21,1.97l-4.68-2.45c-.41-.21-.9-.2-1.3.03-1.57.9-3.23,1.58-4.94,2.04-.45.12-.8.46-.94.9l-1.58,5.05c-.98.11-1.97.17-2.96.17s-1.97-.06-2.96-.17l-1.58-5.05c-.14-.44-.49-.78-.94-.9-1.71-.46-3.37-1.14-4.94-2.05-.4-.23-.9-.24-1.3-.03l-4.68,2.45c-.76-.61-1.5-1.26-2.21-1.97-.71-.71-1.36-1.44-1.97-2.21l2.45-4.68c.21-.41.2-.9-.03-1.3-.9-1.57-1.58-3.23-2.04-4.94-.12-.45-.46-.8-.9-.94l-5.05-1.58c-.11-.98-.17-1.97-.17-2.96s.06-1.98.17-2.96l5.05-1.58c.44-.14.78-.49.9-.94.46-1.71,1.14-3.37,2.04-4.94.23-.4.24-.9.03-1.3l-2.45-4.68c.61-.76,1.26-1.5,1.97-2.21.71-.71,1.44-1.36,2.21-1.97l4.68,2.45c.41.21.9.2,1.3-.03,1.57-.9,3.23-1.58,4.94-2.04.45-.12.8-.46.94-.9l1.58-5.05c.98-.11,1.97-.17,2.96-.17s1.98.06,2.96.17l1.58,5.05c.22.71.98,1.11,1.7.89.22-.07.4-.19.55-.34.34-.34.49-.86.34-1.36h0s-1.84-5.88-1.84-5.88c-.16-.5-.58-.86-1.1-.94-1.39-.2-2.79-.3-4.19-.3-1.4,0-2.8.1-4.19.3-.52.08-.94.44-1.1.94l-1.62,5.2c-1.44.44-2.84,1.02-4.19,1.73l-4.82-2.52c-.46-.24-1.02-.2-1.44.11-1.1.82-2.17,1.74-3.17,2.74-1.01,1.01-1.92,2.07-2.74,3.17-.31.42-.36.98-.11,1.44l2.53,4.82c-.72,1.35-1.3,2.75-1.73,4.19l-5.2,1.62c-.5.16-.86.58-.94,1.1-.2,1.39-.3,2.79-.3,4.19s.1,2.8.3,4.19c.07.52.44.94.94,1.1l5.2,1.62c.44,1.44,1.02,2.84,1.73,4.19l-2.53,4.82c-.24.46-.2,1.02.12,1.44.83,1.1,1.74,2.17,2.74,3.17,1.01,1.01,2.07,1.92,3.17,2.74.42.31.98.36,1.44.11l4.81-2.53c1.35.72,2.75,1.3,4.19,1.73l1.62,5.2c.16.5.58.86,1.1.94,1.39.2,2.79.3,4.18.3s2.8-.1,4.19-.3c.52-.07.94-.44,1.1-.94l1.62-5.2c1.44-.44,2.84-1.01,4.19-1.73l4.81,2.52c.46.24,1.02.2,1.44-.11,1.1-.82,2.17-1.74,3.17-2.74,1.01-1.01,1.92-2.07,2.74-3.17.31-.42.36-.98.11-1.44l-2.53-4.81c.72-1.35,1.3-2.75,1.73-4.19l5.2-1.62c.5-.16.86-.58.94-1.1.2-1.39.3-2.79.3-4.19s-.1-2.8-.3-4.19c-.08-.52-.44-.94-.94-1.1l-5.88-1.84c-.5-.16-1.01,0-1.36.34-.15.15-.27.33-.34.55Z"></path>
  <path class="cls-1" d="m64.59,8.33c-1.07,0-2.15.41-2.97,1.23-.82.81-1.23,1.9-1.23,2.96,0,1.07.41,2.15,1.23,2.97.82.82,1.9,1.23,2.97,1.23,1.07,0,2.15-.41,2.97-1.23l-.96-.96.96.96c.82-.82,1.23-1.9,1.23-2.97,0-1.07-.41-2.15-1.23-2.96-.82-.82-1.9-1.23-2.97-1.23Zm-1.48,4.19c0-.38.14-.75.43-1.05.29-.29.67-.43,1.05-.43.38,0,.76.14,1.05.43.29.29.43.66.43,1.05,0,.39-.14.76-.43,1.05-.29.29-.67.43-1.05.43-.38,0-.76-.14-1.05-.43-.29-.29-.43-.67-.43-1.05Z"></path>
</svg>
