<!DOCTYPE svg PUBLIC "-//W3C//DTD SVG 1.1//EN" "http://www.w3.org/Graphics/SVG/1.1/DTD/svg11.dtd">
<!-- Uploaded to: SVG Repo, www.svgrepo.com, Transformed by: SVG Repo Mixer Tools -->
<svg version="1.1" id="Layer_1" xmlns="http://www.w3.org/2000/svg" xmlns:xlink="http://www.w3.org/1999/xlink" viewBox="0 0 509.287 509.287" xml:space="preserve" width="800px" height="800px" fill="#000000">
<g id="SVGRepo_bgCarrier" stroke-width="0"/>
<g id="SVGRepo_tracerCarrier" stroke-linecap="round" stroke-linejoin="round"/>
<g id="SVGRepo_iconCarrier"> <circle style="fill:#FBD303;" cx="254.644" cy="254.644" r="254.644"/> <path style="fill:#4F5565;" d="M444.864,278.04H64.424c-7.121,0-12.546,5.764-12.546,12.546v128.17 c0,7.121,5.764,12.546,12.546,12.546h380.44c7.121,0,12.546-5.764,12.546-12.546v-128.17 C457.409,283.804,451.984,278.04,444.864,278.04z"/> <circle style="fill:#F0582F;" cx="110.199" cy="354.67" r="18.31"/> <rect x="169.875" y="312.286" style="fill:#6EB1E1;" width="187.846" height="84.768"/> <g> <rect x="183.777" y="372.98" style="fill:#4485C5;" width="13.563" height="14.919"/> <rect x="204.8" y="347.889" style="fill:#4485C5;" width="13.563" height="40.011"/> <rect x="225.823" y="372.98" style="fill:#4485C5;" width="13.563" height="14.919"/> <rect x="246.506" y="326.188" style="fill:#4485C5;" width="13.563" height="61.711"/> <rect x="267.528" y="341.107" style="fill:#4485C5;" width="13.563" height="46.792"/> <rect x="288.551" y="359.756" style="fill:#4485C5;" width="13.563" height="28.143"/> <rect x="309.234" y="372.98" style="fill:#4485C5;" width="13.563" height="14.919"/> <rect x="330.257" y="321.441" style="fill:#4485C5;" width="13.563" height="66.458"/> </g> <circle style="fill:#FBD303;" cx="404.853" cy="322.458" r="10.172"/> <circle style="fill:#71D456;" cx="404.853" cy="354.67" r="10.172"/> <g> <circle style="fill:#646B79;" cx="404.853" cy="386.882" r="10.172"/> <path style="fill:#646B79;" d="M143.767,146.819L143.767,146.819c-6.781,0-11.868,5.425-11.868,11.868V278.04h24.074V158.686 C155.974,151.905,150.548,146.819,143.767,146.819z"/> </g> <g> <path style="fill:#6EB1E1;" d="M179.37,159.025h-11.868c0-13.224-10.511-23.735-23.735-23.735s-23.735,10.511-23.735,23.735 h-11.868c0-19.666,15.936-35.603,35.603-35.603S179.37,139.359,179.37,159.025z"/> <path style="fill:#6EB1E1;" d="M202.766,159.025h-11.868c0-25.77-21.023-47.131-47.131-47.131 c-25.77,0-47.131,21.023-47.131,47.131H84.768c0-32.551,26.448-58.66,58.66-58.66C176.318,100.366,202.766,126.474,202.766,159.025 z"/> <path style="fill:#6EB1E1;" d="M225.144,159.025h-11.868c0-38.315-31.195-69.51-69.51-69.51s-69.51,31.195-69.51,69.51H62.389 c0-44.758,36.281-81.038,81.038-81.038C188.524,77.987,225.144,114.268,225.144,159.025z"/> </g> </g>
</svg>