<?xml version="1.0" encoding="UTF-8"?>
<svg xmlns="http://www.w3.org/2000/svg" id="Layer_1" viewBox="0 0 85 69.23">
  <defs>
    <style>.cls-1,.cls-2{fill:none;stroke:#FF5500;stroke-miterlimit:10;stroke-width:2.88px;}.cls-2{stroke-linecap:round;}</style>
  </defs>
  <rect class="cls-1" x="4.07" y="3.46" width="76.85" height="53.71" rx="6.96" ry="6.96"></rect>
  <line class="cls-2" x1="40.31" y1="52.48" x2="44.69" y2="52.48"></line>
  <line class="cls-1" x1="4.07" y1="48.21" x2="80.93" y2="48.21"></line>
  <line class="cls-1" x1="35.12" y1="65.77" x2="35.91" y2="57.15"></line>
  <line class="cls-1" x1="49.09" y1="57.15" x2="49.88" y2="65.77"></line>
  <line class="cls-2" x1="27.54" y1="65.77" x2="57.46" y2="65.77"></line>
  <path class="cls-1" d="m49.79,22.91l-19.7-8.46c-.06-.03-.12.04-.1.1l8.46,19.7s.08.06.12.02l3.27-3.27s.07-.03.1,0l8.44,8.44s.07.03.1,0l4.5-4.5s.03-.07,0-.1l-8.44-8.44s-.03-.07,0-.1l3.27-3.27s.02-.1-.02-.12Z"></path>
</svg>
