<svg id="图层_1" data-name="图层 1" xmlns="http://www.w3.org/2000/svg" xmlns:xlink="http://www.w3.org/1999/xlink" viewBox="0 0 154.6 46.2"><defs><style>.cls-1{fill:none;}.cls-2{clip-path:url(#clip-path);}.cls-3{fill:url(#未命名的渐变);}.cls-4{clip-path:url(#clip-path-2);}.cls-5{fill:url(#未命名的渐变_2);}.cls-6{clip-path:url(#clip-path-3);}.cls-7{fill:url(#未命名的渐变_3);}.cls-8{clip-path:url(#clip-path-4);}.cls-9{fill:url(#未命名的渐变_4);}.cls-10{clip-path:url(#clip-path-5);}.cls-11{fill:url(#未命名的渐变_5);}.cls-12{clip-path:url(#clip-path-6);}.cls-13{fill:url(#未命名的渐变_6);}.cls-14{clip-path:url(#clip-path-7);}.cls-15{fill:url(#未命名的渐变_7);}.cls-16{clip-path:url(#clip-path-8);}.cls-17{fill:url(#未命名的渐变_8);}.cls-18{clip-path:url(#clip-path-9);}.cls-19{fill:url(#未命名的渐变_9);}.cls-20{clip-path:url(#clip-path-10);}.cls-21{fill:url(#未命名的渐变_10);}.cls-22{clip-path:url(#clip-path-11);}.cls-23{fill:url(#未命名的渐变_11);}</style><clipPath id="clip-path" transform="translate(0 0)"><path class="cls-1" d="M87.3,5.7l-1.4,6.7,2.8-.8C95.3,8.3,110.1,2.5,134.3,0h-2.1C118.8,0,102,1.6,87.3,5.7"/></clipPath><linearGradient id="未命名的渐变" y1="46.23" x2="1" y2="46.23" gradientTransform="matrix(63.53, 0, 0, -63.53, 86.14, 2943.14)" gradientUnits="userSpaceOnUse"><stop offset="0" stop-color="#e50032"/><stop offset="0.35" stop-color="#e00031"/><stop offset="0.76" stop-color="#d2002d"/><stop offset="1" stop-color="#c6002a"/></linearGradient><clipPath id="clip-path-2" transform="translate(0 0)"><path class="cls-1" d="M134.2,0C110.1,2.5,95.3,8.3,88.7,11.6c23.4-7.1,45.6-9.2,56.3-9.9l6.6-.2L148.8,1a121.2,121.2,0,0,0-13.7-1Z"/></clipPath><linearGradient id="未命名的渐变_2" y1="46.23" x2="1" y2="46.23" gradientTransform="matrix(-64.04, 0, 0, 64.04, 152.01, -2954.79)" gradientUnits="userSpaceOnUse"><stop offset="0" stop-color="#e50032"/><stop offset="0.19" stop-color="#e00030"/><stop offset="0.43" stop-color="#d0002b"/><stop offset="0.69" stop-color="#b70022"/><stop offset="0.97" stop-color="#940017"/><stop offset="1" stop-color="#8f0015"/></linearGradient><clipPath id="clip-path-3" transform="translate(0 0)"><path class="cls-1" d="M14,1.5c8.9.4,21.5,2,23.9,7.5a2.3,2.3,0,0,1,.4,1.4c0,5.8-19.2,10.8-19.2,10.8l12.1,12H44.9a85.2,85.2,0,0,0-13.3-12C41,20.9,49,16.5,49,9.8a7.3,7.3,0,0,0-.6-3C47,3.4,43.2,1.6,38.2,1.5Z"/></clipPath><linearGradient id="未命名的渐变_3" y1="46.23" y2="46.23" gradientTransform="matrix(0, -46.28, -46.28, 0, 2171.07, 46.96)" xlink:href="#未命名的渐变"/><clipPath id="clip-path-4" transform="translate(0 0)"><path class="cls-1" d="M5,1.5l-2.1,5H31.2s5.3-.1,6.7,2.5C35.5,3.5,22.9,1.9,14,1.5Z"/></clipPath><linearGradient id="未命名的渐变_4" y1="46.23" x2="1" y2="46.23" gradientTransform="matrix(36.37, 0, 0, -36.37, 1.34, 1686.64)" xlink:href="#未命名的渐变_2"/><clipPath id="clip-path-5" transform="translate(0 0)"><polygon class="cls-1" points="8.5 9.8 0 33.2 11.1 33.2 19.6 9.8 8.5 9.8"/></clipPath><linearGradient id="未命名的渐变_5" y1="46.23" y2="46.23" gradientTransform="matrix(0, -46.28, -46.28, 0, 2149.44, 46.96)" xlink:href="#未命名的渐变"/><clipPath id="clip-path-6" transform="translate(0 0)"><path class="cls-1" d="M123.7,9.4h-.5l-8.3,1-5.3,22.8h8.5l5.6-23.8Z"/></clipPath><linearGradient id="未命名的渐变_6" y1="46.23" y2="46.23" gradientTransform="matrix(0, -46.29, -46.29, 0, 2256.67, 46.97)" xlink:href="#未命名的渐变"/><clipPath id="clip-path-7" transform="translate(0 0)"><path class="cls-1" d="M100.2,12.5c-2,8.8-3.8,15.9-5.4,21.2a11,11,0,0,1-2.7,5.1c-1.2,1.2-3.2,2.1-5.9,2.8h-.1L85,46.2h0c2.7-.2,9.8-1.2,14.2-5.4a19.9,19.9,0,0,0,4.6-8.4l5.3-21.2-8.9,1.3"/></clipPath><linearGradient id="未命名的渐变_7" y1="46.23" y2="46.23" gradientTransform="matrix(0, -46.29, -46.29, 0, 2236.86, 46.97)" xlink:href="#未命名的渐变"/><clipPath id="clip-path-8" transform="translate(0 0)"><path class="cls-1" d="M85.4,15.1,81.1,33.2h8.5l4.7-19.7-8.9,1.6"/></clipPath><linearGradient id="未命名的渐变_8" y1="46.23" y2="46.23" gradientTransform="matrix(0, -46.29, -46.29, 0, 2227.49, 46.97)" xlink:href="#未命名的渐变"/><clipPath id="clip-path-9" transform="translate(0 0)"><path class="cls-1" d="M72.3,8.7s-1.7,9.6-3.3,15a10.7,10.7,0,0,1-.7,1.9h-.1c0,.2-.1.3-.3.5s-2.2,2.1-5.1,2.3-5.4-.6-4.9-3.1L62,8.7H52.9l-4.4,19c-.4,2.3.7,4,3,4.8a11.8,11.8,0,0,0,4.5.7c14,0,18.9-.3,20.8-6.1,1-3,4.3-18,4.4-18.4Z"/></clipPath><linearGradient id="未命名的渐变_9" y1="46.23" y2="46.23" gradientTransform="matrix(0, -46.29, -46.29, 0, 2204.48, 46.97)" xlink:href="#未命名的渐变"/><clipPath id="clip-path-10" transform="translate(0 0)"><path class="cls-1" d="M123.9,21.4a11,11,0,0,0-.2,1.8c-.3,3,1.4,8,8.8,9.6s15.1-1.5,17.2-2.4l1.5-5.9h0a31.9,31.9,0,0,1-11.9,5.2c-7.5,1.4-16-.7-15.4-8.3Z"/></clipPath><linearGradient id="未命名的渐变_10" y1="46.23" y2="46.23" gradientTransform="matrix(0, -46.28, -46.28, 0, 2276.72, 46.96)" xlink:href="#未命名的渐变"/><clipPath id="clip-path-11" transform="translate(0 0)"><path class="cls-1" d="M142.7,13.6c5.2-1.5,5.3,6-2,7.5l-7.6,1.4s1.4-6.6,9.6-8.9m.2-5.1c-5.5.3-9.3,1.6-12.9,4.3a15.2,15.2,0,0,0-6.1,8.6c-.6,7.6,7.9,9.7,15.4,8.4a32.9,32.9,0,0,0,11.9-5.3c-2,1-16.9,8.5-18.1.1l13.8-2.5c2.3-.4,7.2-2,7.6-6.2a6,6,0,0,0-1.2-4.1c-1.6-2-4.7-3.4-9-3.4h-1.4"/></clipPath><linearGradient id="未命名的渐变_11" y1="46.23" x2="1" y2="46.23" gradientTransform="matrix(0, 28.5, 28.5, 0, -1178.67, 0.46)" gradientUnits="userSpaceOnUse"><stop offset="0" stop-color="#e50032"/><stop offset="0.27" stop-color="#e00030"/><stop offset="0.6" stop-color="#d0002c"/><stop offset="0.97" stop-color="#b70025"/><stop offset="1" stop-color="#b50024"/></linearGradient></defs><g class="cls-2"><rect class="cls-3" x="85.9" width="48.3" height="12.42"/></g><g class="cls-4"><rect class="cls-5" x="88.7" width="63" height="11.56"/></g><g class="cls-6"><rect class="cls-7" x="14" y="1.5" width="34.9" height="31.75"/></g><g class="cls-8"><rect class="cls-9" x="2.9" y="1.5" width="35" height="7.52"/></g><g class="cls-10"><rect class="cls-11" y="9.8" width="19.6" height="23.41"/></g><g class="cls-12"><rect class="cls-13" x="109.6" y="9.4" width="14.2" height="23.83"/></g><g class="cls-14"><rect class="cls-15" x="85" y="11.2" width="24.1" height="35.04"/></g><g class="cls-16"><rect class="cls-17" x="81.1" y="13.5" width="13.2" height="19.71"/></g><g class="cls-18"><rect class="cls-19" x="48.1" y="8.7" width="33" height="24.56"/></g><g class="cls-20"><rect class="cls-21" x="123.3" y="21.4" width="28" height="12.83"/></g><g class="cls-22"><rect class="cls-23" x="123.3" y="8.4" width="31.4" height="24.63"/></g></svg>