<svg width="142" height="31" viewBox="0 0 142 31" xmlns="http://www.w3.org/2000/svg" role="img"
  aria-labelledby="logoTitle">
  <title id="logoTitle">Belden</title>
  <g fill="#004990" fill-rule="evenodd">
    <path
      d="M8.931 18.256l.632-.006c1.6-.017 3.593-.039 4.556.913.43.425.638 1.022.638 1.823 0 .697-.196 1.232-.598 1.632-1.031 1.032-3.212 1.028-4.803 1.025h-.73v-5.387h.305zM8.697 6.825c2.585 0 3.986.379 3.986 2.381 0 1.691-1.065 2.38-3.674 2.38h-.383V6.825h.07zM.477 0H0v30.467h12.298c7.095 0 11.164-3.171 11.164-8.696 0-4.287-1.955-6.873-5.508-7.712 1.796-1.252 2.728-3.166 2.728-5.91 0-5.408-3.11-8.149-9.245-8.149H.477zM41.928 0h-17.27v30.467h17.747v-7.45h-9.12v-4.136h8.65V11.43h-8.65V7.45h9.12V0zM77.021 29.213c5.818-1.658 9.89-6.71 9.955-13.952l-.001-.088C86.898 7.95 82.829 2.912 77.02 1.257c6.626 1.357 11.693 6.19 11.736 13.872v.154c-.018 7.716-5.093 12.57-11.736 13.93zm6.94-14.006c-.063-6.284-3.488-10.391-8.705-11.632 5.816.868 10.324 4.9 10.332 11.623v.019c-.008 6.722-4.544 10.727-10.36 11.594 5.218-1.24 8.67-5.319 8.733-11.604zm-10.023 8.966c4.373-1.04 7.21-3.721 7.28-8.966-.07-5.243-2.907-7.924-7.28-8.964 4.88.728 8.727 3.312 8.746 8.944v.041c-.019 5.631-3.865 8.216-8.746 8.945zM72.001 7.47c4.747.101 7.694 3.046 7.694 7.762 0 4.764-2.876 7.63-7.694 7.758V7.47zM74.734 0H63.376v30.467h11.358c8.529 0 15.467-6.834 15.467-15.234C90.201 6.834 83.263 0 74.734 0zM52.22 0h-8.15v30.467h17.825v-7.45h-9.199V0zM109.176.002H91.908V30.47h17.745v-7.453h-9.122v-4.134h8.654v-7.451h-8.654V7.453h9.122V.002zM141.386.002h-8.15v17.234C131.856 15.46 119.817.002 119.817.002h-8.38V30.47h8.626V13.198A81697.69 81697.69 0 0 0 133.48 30.47h8.384V.002h-.478z">
    </path>
  </g>
</svg>
